<svg width="6" height="6" viewBox="0 0 6 6" fill="none" xmlns="http://www.w3.org/2000/svg">
<g clip-path="url(#clip0_146_12)">
<mask id="path-1-outside-1_146_12" maskUnits="userSpaceOnUse" x="0" y="0" width="6" height="6" fill="black">
<rect fill="white" width="6" height="6"/>
<path fill-rule="evenodd" clip-rule="evenodd" d="M3 1.5C3 1.22386 2.77614 1 2.5 1H1.5C1.22386 1 1 1.22386 1 1.5V3V4.5C1 4.77614 1.22386 5 1.5 5H4.5C4.77614 5 5 4.77614 5 4.5V3.5C5 3.22386 4.77614 3 4.5 3H3.5C3.22386 3 3 2.77614 3 2.5V1.5Z"/>
</mask>
<path fill-rule="evenodd" clip-rule="evenodd" d="M3 1.5C3 1.22386 2.77614 1 2.5 1H1.5C1.22386 1 1 1.22386 1 1.5V3V4.5C1 4.77614 1.22386 5 1.5 5H4.5C4.77614 5 5 4.77614 5 4.5V3.5C5 3.22386 4.77614 3 4.5 3H3.5C3.22386 3 3 2.77614 3 2.5V1.5Z" fill="#8DFF65"/>
<path d="M1.5 1.2H2.5V0.8H1.5V1.2ZM1.2 3V1.5H0.8V3H1.2ZM1.2 4.5V3H0.8V4.5H1.2ZM4.5 4.8H1.5V5.2H4.5V4.8ZM4.8 3.5V4.5H5.2V3.5H4.8ZM3.5 3.2H4.5V2.8H3.5V3.2ZM2.8 1.5V2.5H3.2V1.5H2.8ZM3.5 2.8C3.33431 2.8 3.2 2.66569 3.2 2.5H2.8C2.8 2.8866 3.1134 3.2 3.5 3.2V2.8ZM4.5 5.2C4.8866 5.2 5.2 4.8866 5.2 4.5H4.8C4.8 4.66569 4.66569 4.8 4.5 4.8V5.2ZM0.8 4.5C0.8 4.8866 1.1134 5.2 1.5 5.2V4.8C1.33431 4.8 1.2 4.66569 1.2 4.5H0.8ZM2.5 1.2C2.66569 1.2 2.8 1.33431 2.8 1.5H3.2C3.2 1.1134 2.8866 0.8 2.5 0.8V1.2ZM5.2 3.5C5.2 3.1134 4.8866 2.8 4.5 2.8V3.2C4.66569 3.2 4.8 3.33431 4.8 3.5H5.2ZM1.5 0.8C1.1134 0.8 0.8 1.1134 0.8 1.5H1.2C1.2 1.33431 1.33431 1.2 1.5 1.2V0.8Z" fill="black" mask="url(#path-1-outside-1_146_12)"/>
</g>
<defs>
<clipPath id="clip0_146_12">
<rect width="6" height="6" fill="white"/>
</clipPath>
</defs>
</svg>
