<svg width="6" height="6" viewBox="0 0 6 6" fill="none" xmlns="http://www.w3.org/2000/svg">
<mask id="path-1-outside-1_146_16" maskUnits="userSpaceOnUse" x="0" y="1" width="6" height="5" fill="black">
<rect fill="white" y="1" width="6" height="5"/>
<path fill-rule="evenodd" clip-rule="evenodd" d="M1 2.5C1 2.22386 1.22386 2 1.5 2V2C1.77614 2 2 2.22386 2 2.5V2.5C2 2.77614 2.22386 3 2.5 3V3C2.77614 3 3 2.77614 3 2.5V2.5C3 2.22386 3.22386 2 3.5 2V2C3.77614 2 4 2.22386 4 2.5V2.5C4 2.77614 4.22386 3 4.5 3V3C4.77614 3 5 3.22386 5 3.5V4.5C5 4.77614 4.77614 5 4.5 5H1.5C1.22386 5 1 4.77614 1 4.5V3V2.5Z"/>
</mask>
<path fill-rule="evenodd" clip-rule="evenodd" d="M1 2.5C1 2.22386 1.22386 2 1.5 2V2C1.77614 2 2 2.22386 2 2.5V2.5C2 2.77614 2.22386 3 2.5 3V3C2.77614 3 3 2.77614 3 2.5V2.5C3 2.22386 3.22386 2 3.5 2V2C3.77614 2 4 2.22386 4 2.5V2.5C4 2.77614 4.22386 3 4.5 3V3C4.77614 3 5 3.22386 5 3.5V4.5C5 4.77614 4.77614 5 4.5 5H1.5C1.22386 5 1 4.77614 1 4.5V3V2.5Z" fill="#8DFF65"/>
<path d="M5.2 4.5V3.5H4.8V4.5H5.2ZM1.5 5.2H4.5V4.8H1.5V5.2ZM0.8 3V4.5H1.2V3H0.8ZM0.8 2.5V3H1.2V2.5H0.8ZM1.5 4.8C1.33431 4.8 1.2 4.66569 1.2 4.5H0.8C0.8 4.8866 1.1134 5.2 1.5 5.2V4.8ZM4.8 4.5C4.8 4.66569 4.66569 4.8 4.5 4.8V5.2C4.8866 5.2 5.2 4.8866 5.2 4.5H4.8ZM4.5 3.2C4.66569 3.2 4.8 3.33431 4.8 3.5H5.2C5.2 3.1134 4.8866 2.8 4.5 2.8V3.2ZM3.8 2.5C3.8 2.8866 4.1134 3.2 4.5 3.2V2.8C4.33431 2.8 4.2 2.66569 4.2 2.5H3.8ZM3.5 2.2C3.66569 2.2 3.8 2.33431 3.8 2.5H4.2C4.2 2.1134 3.8866 1.8 3.5 1.8V2.2ZM3.2 2.5C3.2 2.33431 3.33431 2.2 3.5 2.2V1.8C3.1134 1.8 2.8 2.1134 2.8 2.5H3.2ZM2.5 3.2C2.8866 3.2 3.2 2.8866 3.2 2.5H2.8C2.8 2.66569 2.66569 2.8 2.5 2.8V3.2ZM1.8 2.5C1.8 2.8866 2.1134 3.2 2.5 3.2V2.8C2.33431 2.8 2.2 2.66569 2.2 2.5H1.8ZM1.5 1.8C1.1134 1.8 0.8 2.1134 0.8 2.5H1.2C1.2 2.33431 1.33431 2.2 1.5 2.2V1.8ZM1.5 2.2C1.66569 2.2 1.8 2.33431 1.8 2.5H2.2C2.2 2.1134 1.8866 1.8 1.5 1.8V2.2Z" fill="black" mask="url(#path-1-outside-1_146_16)"/>
</svg>
