<svg width="6" height="6" viewBox="0 0 6 6" fill="none" xmlns="http://www.w3.org/2000/svg">
<g clip-path="url(#clip0_146_8)">
<mask id="path-1-outside-1_146_8" maskUnits="userSpaceOnUse" x="0" y="0" width="6" height="6" fill="black">
<rect fill="white" width="6" height="6"/>
<path fill-rule="evenodd" clip-rule="evenodd" d="M5 1.5C5 1.22386 4.77614 1 4.5 1H3.5C3.22386 1 3 1.22386 3 1.5V2.5C3 2.77614 2.77614 3 2.5 3H1.5C1.22386 3 1 3.22386 1 3.5V4.5C1 4.77614 1.22386 5 1.5 5H4.5C4.77614 5 5 4.77614 5 4.5V3V1.5Z"/>
</mask>
<path fill-rule="evenodd" clip-rule="evenodd" d="M5 1.5C5 1.22386 4.77614 1 4.5 1H3.5C3.22386 1 3 1.22386 3 1.5V2.5C3 2.77614 2.77614 3 2.5 3H1.5C1.22386 3 1 3.22386 1 3.5V4.5C1 4.77614 1.22386 5 1.5 5H4.5C4.77614 5 5 4.77614 5 4.5V3V1.5Z" fill="#8DFF65"/>
<path d="M3.5 1.2H4.5V0.8H3.5V1.2ZM3.2 2.5V1.5H2.8V2.5H3.2ZM1.5 3.2H2.5V2.8H1.5V3.2ZM1.2 4.5V3.5H0.8V4.5H1.2ZM4.5 4.8H1.5V5.2H4.5V4.8ZM4.8 3V4.5H5.2V3H4.8ZM4.8 1.5V3H5.2V1.5H4.8ZM4.5 5.2C4.8866 5.2 5.2 4.8866 5.2 4.5H4.8C4.8 4.66569 4.66569 4.8 4.5 4.8V5.2ZM0.8 4.5C0.8 4.8866 1.1134 5.2 1.5 5.2V4.8C1.33431 4.8 1.2 4.66569 1.2 4.5H0.8ZM1.5 2.8C1.1134 2.8 0.8 3.1134 0.8 3.5H1.2C1.2 3.33431 1.33431 3.2 1.5 3.2V2.8ZM2.8 2.5C2.8 2.66569 2.66569 2.8 2.5 2.8V3.2C2.8866 3.2 3.2 2.8866 3.2 2.5H2.8ZM4.5 1.2C4.66569 1.2 4.8 1.33431 4.8 1.5H5.2C5.2 1.1134 4.8866 0.8 4.5 0.8V1.2ZM3.5 0.8C3.1134 0.8 2.8 1.1134 2.8 1.5H3.2C3.2 1.33431 3.33431 1.2 3.5 1.2V0.8Z" fill="black" mask="url(#path-1-outside-1_146_8)"/>
</g>
<defs>
<clipPath id="clip0_146_8">
<rect width="6" height="6" fill="white"/>
</clipPath>
</defs>
</svg>
