<svg width="100" height="100" viewBox="0 0 100 100" fill="none" xmlns="http://www.w3.org/2000/svg">
<g clip-path="url(#clip0_286_2)">
<path fill-rule="evenodd" clip-rule="evenodd" d="M50 100C77.6142 100 100 77.6142 100 50C100 22.3858 77.6142 0 50 0C22.3858 0 0 22.3858 0 50C0 77.6142 22.3858 100 50 100ZM33.7322 33.7322C34.7085 32.7559 36.2915 32.7559 37.2678 33.7322L50.5 46.9645L63.7322 33.7322C64.7085 32.7559 66.2915 32.7559 67.2678 33.7322C68.2441 34.7085 68.2441 36.2915 67.2678 37.2678L54.0355 50.5L67.2678 63.7322C68.2441 64.7085 68.2441 66.2915 67.2678 67.2678C66.2915 68.2441 64.7085 68.2441 63.7322 67.2678L50.5 54.0355L37.2678 67.2678C36.2915 68.2441 34.7085 68.2441 33.7322 67.2678C32.7559 66.2915 32.7559 64.7085 33.7322 63.7322L46.9645 50.5L33.7322 37.2678C32.7559 36.2915 32.7559 34.7085 33.7322 33.7322Z" fill="white"/>
</g>
<defs>
<clipPath id="clip0_286_2">
<rect width="100" height="100" fill="white"/>
</clipPath>
</defs>
</svg>
