<svg width="339" height="58" viewBox="0 0 339 58" fill="none" xmlns="http://www.w3.org/2000/svg">
<g clip-path="url(#clip0_2_62)">
<g filter="url(#filter0_d_2_62)">
<path d="M16.512 53.472C8.96 53.472 3.84 51.04 0 47.968L4.992 41.312C7.744 43.168 12.16 45.088 16.384 45.088C19.328 45.088 21.44 43.744 21.44 41.952C21.44 39.584 16.512 39.328 14.656 39.008C9.856 38.176 0.704 36.768 0.704 27.936C0.704 17.632 11.84 16.8 15.232 16.8C20.8 16.8 25.28 18.4 29.888 21.856L24.896 28.384C22.272 26.848 18.816 25.12 14.912 25.12C13.056 25.12 10.304 26.016 10.304 27.744C10.304 30.112 15.424 30.688 16.96 30.88C22.912 31.904 30.976 32.928 30.976 42.016C30.976 49.312 25.728 53.472 16.512 53.472ZM52.369 53.408C42.257 53.408 38.545 47.456 38.545 38.368V17.568H48.209V38.368C48.209 43.744 51.409 45.408 55.057 45.408C57.745 45.408 62.033 43.808 61.777 36.192V17.568H71.377V52.64H61.777V49.632C59.473 52 56.081 53.408 52.369 53.408ZM102.174 26.144C99.87 25.952 90.142 26.4 90.142 37.088V52.64H80.606V17.44H90.142V22.112C93.726 17.376 99.678 16.736 102.174 16.8V26.144ZM119.059 26.208V52.64H109.459V26.208H105.491V18.016H109.459C109.779 8.736 114.963 4 123.475 4C124.691 4 126.163 4.192 127.699 4.576L127.187 12.32C126.099 12 124.819 11.872 123.603 12C119.315 12.448 119.059 15.648 119.059 18.016H125.395V26.208H119.059ZM158.86 52.64V49.12C157.388 51.104 153.164 53.408 148.172 53.408C137.036 53.408 130.507 45.152 130.507 35.04C130.507 24.928 137.036 16.672 148.172 16.672C153.292 16.672 157.068 18.72 158.86 21.088V17.44H168.332V52.64H158.86ZM159.244 35.04C159.244 29.216 155.532 25.056 149.58 25.056C143.5 25.056 139.916 29.28 139.916 35.04C139.916 40.608 143.692 44.96 149.58 44.96C155.532 44.96 159.244 41.184 159.244 35.04ZM195.333 53.536C184.837 53.536 176.132 45.28 176.132 35.168C176.132 25.056 184.773 16.864 195.269 16.864C202.693 16.864 208.965 20.512 212.549 27.104L203.909 30.496C201.797 26.976 198.725 25.248 195.269 25.248C189.701 25.248 185.668 29.472 185.668 35.168C185.668 40.928 189.765 45.088 195.333 45.088C198.789 45.088 201.989 43.616 204.229 39.968L212.357 43.168C208.965 50.08 203.397 53.536 195.333 53.536ZM236.894 53.536C230.046 53.536 217.757 49.632 217.757 35.168C217.757 20.704 230.302 16.864 236.894 16.864C245.918 16.864 254.942 23.008 255.262 34.336C255.262 37.024 255.07 38.752 255.07 38.752H227.293C228.446 44.512 234.974 45.152 236.894 45.152C242.206 45.152 244.83 42.272 245.918 41.056L253.342 45.344C251.934 47.264 247.198 53.536 236.894 53.536ZM236.83 25.248C231.326 25.248 227.934 28.384 227.55 31.968H245.15C244.766 28.768 241.63 25.248 236.83 25.248Z" fill="white"/>
</g>
<g filter="url(#filter1_d_2_62)">
<path d="M255.261 32.9536L270.66 4L286.058 32.9536H279.415L277.188 28.6528H264.093L261.943 32.9536H255.261ZM267.089 23.4688H274.269L270.66 16.1344L267.089 23.4688ZM301.829 4.8832C308.894 4.8832 313.157 9.376 313.157 14.944C313.157 20.4736 309.317 24.7744 301.79 24.7744H296.491V32.9536H290.424V4.8832H301.829ZM302.673 19.5136C305.707 19.5136 307.051 17.248 307.051 14.944C307.051 12.5632 305.323 10.144 302.059 10.144H296.491V19.5136H302.673ZM338.675 27.6928V32.9536H317.862V4.8832H323.968V27.6928H338.675Z" fill="#7856FF"/>
</g>
</g>
<defs>
<filter id="filter0_d_2_62" x="0" y="4" width="255.261" height="53.536" filterUnits="userSpaceOnUse" color-interpolation-filters="sRGB">
<feFlood flood-opacity="0" result="BackgroundImageFix"/>
<feColorMatrix in="SourceAlpha" type="matrix" values="0 0 0 0 0 0 0 0 0 0 0 0 0 0 0 0 0 0 127 0" result="hardAlpha"/>
<feOffset dy="4"/>
<feComposite in2="hardAlpha" operator="out"/>
<feColorMatrix type="matrix" values="0 0 0 0 1 0 0 0 0 1 0 0 0 0 1 0 0 0 0.25 0"/>
<feBlend mode="normal" in2="BackgroundImageFix" result="effect1_dropShadow_2_62"/>
<feBlend mode="normal" in="SourceGraphic" in2="effect1_dropShadow_2_62" result="shape"/>
</filter>
<filter id="filter1_d_2_62" x="255.261" y="4" width="83.4138" height="31.9536" filterUnits="userSpaceOnUse" color-interpolation-filters="sRGB">
<feFlood flood-opacity="0" result="BackgroundImageFix"/>
<feColorMatrix in="SourceAlpha" type="matrix" values="0 0 0 0 0 0 0 0 0 0 0 0 0 0 0 0 0 0 127 0" result="hardAlpha"/>
<feOffset dy="3"/>
<feComposite in2="hardAlpha" operator="out"/>
<feColorMatrix type="matrix" values="0 0 0 0 0.468889 0 0 0 0 0.336111 0 0 0 0 1 0 0 0 0.5 0"/>
<feBlend mode="normal" in2="BackgroundImageFix" result="effect1_dropShadow_2_62"/>
<feBlend mode="normal" in="SourceGraphic" in2="effect1_dropShadow_2_62" result="shape"/>
</filter>
<clipPath id="clip0_2_62">
<rect width="338.675" height="57.536" fill="white"/>
</clipPath>
</defs>
</svg>
