<svg width="100" height="100" viewBox="0 0 100 100" fill="none" xmlns="http://www.w3.org/2000/svg">
<mask id="path-1-inside-1_230_12" fill="white">
<path d="M42.8013 4.00962C47.4423 1.33013 53.1603 1.33013 57.8013 4.00962L86.1025 20.3494C90.7436 23.0289 93.6025 27.9808 93.6025 33.3397V66.0192C93.6025 71.3782 90.7436 76.3301 86.1025 79.0096L57.8013 95.3494C53.1603 98.0289 47.4423 98.0289 42.8013 95.3494L14.5 79.0096C9.85899 76.3301 7 71.3782 7 66.0192V33.3397C7 27.9808 9.85898 23.0289 14.5 20.3494L42.8013 4.00962Z"/>
</mask>
<path d="M42.8013 4.00962C47.4423 1.33013 53.1603 1.33013 57.8013 4.00962L86.1025 20.3494C90.7436 23.0289 93.6025 27.9808 93.6025 33.3397V66.0192C93.6025 71.3782 90.7436 76.3301 86.1025 79.0096L57.8013 95.3494C53.1603 98.0289 47.4423 98.0289 42.8013 95.3494L14.5 79.0096C9.85899 76.3301 7 71.3782 7 66.0192V33.3397C7 27.9808 9.85898 23.0289 14.5 20.3494L42.8013 4.00962Z" fill="url(#paint0_linear_230_12)"/>
<path d="M57.8013 95.3494L60.3013 99.6795L57.8013 95.3494ZM42.8013 95.3494L40.3013 99.6795L42.8013 95.3494ZM86.1025 79.0096L83.6025 74.6795L86.1025 79.0096ZM55.3013 8.33975L83.6025 24.6795L88.6025 16.0192L60.3013 -0.320509L55.3013 8.33975ZM88.6025 33.3397V66.0192H98.6025V33.3397H88.6025ZM83.6025 74.6795L55.3013 91.0192L60.3013 99.6795L88.6025 83.3397L83.6025 74.6795ZM45.3013 91.0192L17 74.6795L12 83.3397L40.3013 99.6795L45.3013 91.0192ZM12 66.0192V33.3397H2V66.0192H12ZM17 24.6795L45.3013 8.33975L40.3013 -0.320507L12 16.0192L17 24.6795ZM12 33.3397C12 29.7671 13.906 26.4658 17 24.6795L12 16.0192C5.81198 19.5919 2 26.1944 2 33.3397H12ZM17 74.6795C13.906 72.8932 12 69.5919 12 66.0192H2C2 73.1645 5.81198 79.7671 12 83.3397L17 74.6795ZM55.3013 91.0192C52.2073 92.8056 48.3953 92.8056 45.3013 91.0192L40.3013 99.6795C46.4893 103.252 54.1133 103.252 60.3013 99.6795L55.3013 91.0192ZM88.6025 66.0192C88.6025 69.5919 86.6965 72.8932 83.6025 74.6795L88.6025 83.3397C94.7906 79.7671 98.6025 73.1645 98.6025 66.0192H88.6025ZM83.6025 24.6795C86.6965 26.4658 88.6025 29.7671 88.6025 33.3397H98.6025C98.6025 26.1944 94.7906 19.5919 88.6025 16.0192L83.6025 24.6795ZM60.3013 -0.320509C54.1132 -3.89317 46.4893 -3.89316 40.3013 -0.320507L45.3013 8.33975C48.3953 6.55342 52.2073 6.55342 55.3013 8.33975L60.3013 -0.320509Z" fill="black" fill-opacity="0.25" mask="url(#path-1-inside-1_230_12)"/>
<path fill-rule="evenodd" clip-rule="evenodd" d="M39.125 56C36.4326 56 34.25 58.1826 34.25 60.875C34.25 63.5674 36.4326 65.75 39.125 65.75C41.8174 65.75 44 63.5674 44 60.875C44 58.1826 41.8174 56 39.125 56ZM31 60.875C31 56.3877 34.6377 52.75 39.125 52.75C43.6123 52.75 47.25 56.3877 47.25 60.875C47.25 65.3623 43.6123 69 39.125 69C34.6377 69 31 65.3623 31 60.875Z" fill="white"/>
<path fill-rule="evenodd" clip-rule="evenodd" d="M61.8749 56C59.1825 56 56.9999 58.1826 56.9999 60.875C56.9999 63.5674 59.1825 65.75 61.8749 65.75C64.5673 65.75 66.7499 63.5674 66.7499 60.875C66.7499 58.1826 64.5673 56 61.8749 56ZM53.7499 60.875C53.7499 56.3877 57.3876 52.75 61.8749 52.75C66.3622 52.75 69.9999 56.3877 69.9999 60.875C69.9999 65.3623 66.3622 69 61.8749 69C57.3876 69 53.7499 65.3623 53.7499 60.875Z" fill="white"/>
<path d="M63.1853 32.5861C63.716 31.8623 63.5597 30.8454 62.8359 30.3147C62.1122 29.784 61.0952 29.9404 60.5645 30.6641L63.1853 32.5861ZM40.4354 30.6641C39.9047 29.9404 38.8877 29.784 38.164 30.3147C37.4403 30.8454 37.2839 31.8623 37.8146 32.5861L40.4354 30.6641ZM45.3104 56.9611L63.1853 32.5861L60.5645 30.6641L42.6896 55.0391L45.3104 56.9611ZM58.3103 55.0391L40.4354 30.6641L37.8146 32.5861L55.6895 56.9611L58.3103 55.0391Z" fill="white"/>
<defs>
<linearGradient id="paint0_linear_230_12" x1="34" y1="5.5" x2="50.3013" y2="97.359" gradientUnits="userSpaceOnUse">
<stop stop-color="#7000FF"/>
<stop offset="1" stop-color="#FF0000"/>
</linearGradient>
</defs>
</svg>
