<svg width="100" height="100" viewBox="0 0 100 100" fill="none" xmlns="http://www.w3.org/2000/svg">
<mask id="path-1-inside-1_230_45" fill="white">
<path d="M42.8013 4.00962C47.4423 1.33013 53.1603 1.33013 57.8013 4.00962L86.1025 20.3494C90.7436 23.0289 93.6025 27.9808 93.6025 33.3397V66.0192C93.6025 71.3782 90.7436 76.3301 86.1025 79.0096L57.8013 95.3494C53.1603 98.0289 47.4423 98.0289 42.8013 95.3494L14.5 79.0096C9.85899 76.3301 7 71.3782 7 66.0192V33.3397C7 27.9808 9.85898 23.0289 14.5 20.3494L42.8013 4.00962Z"/>
</mask>
<path d="M42.8013 4.00962C47.4423 1.33013 53.1603 1.33013 57.8013 4.00962L86.1025 20.3494C90.7436 23.0289 93.6025 27.9808 93.6025 33.3397V66.0192C93.6025 71.3782 90.7436 76.3301 86.1025 79.0096L57.8013 95.3494C53.1603 98.0289 47.4423 98.0289 42.8013 95.3494L14.5 79.0096C9.85899 76.3301 7 71.3782 7 66.0192V33.3397C7 27.9808 9.85898 23.0289 14.5 20.3494L42.8013 4.00962Z" fill="url(#paint0_linear_230_45)"/>
<path d="M57.8013 95.3494L60.3013 99.6795L57.8013 95.3494ZM42.8013 95.3494L40.3013 99.6795L42.8013 95.3494ZM86.1025 79.0096L83.6025 74.6795L86.1025 79.0096ZM55.3013 8.33975L83.6025 24.6795L88.6025 16.0192L60.3013 -0.320509L55.3013 8.33975ZM88.6025 33.3397V66.0192H98.6025V33.3397H88.6025ZM83.6025 74.6795L55.3013 91.0192L60.3013 99.6795L88.6025 83.3397L83.6025 74.6795ZM45.3013 91.0192L17 74.6795L12 83.3397L40.3013 99.6795L45.3013 91.0192ZM12 66.0192V33.3397H2V66.0192H12ZM17 24.6795L45.3013 8.33975L40.3013 -0.320507L12 16.0192L17 24.6795ZM12 33.3397C12 29.7671 13.906 26.4658 17 24.6795L12 16.0192C5.81198 19.5919 2 26.1944 2 33.3397H12ZM17 74.6795C13.906 72.8932 12 69.5919 12 66.0192H2C2 73.1645 5.81198 79.7671 12 83.3397L17 74.6795ZM55.3013 91.0192C52.2073 92.8056 48.3953 92.8056 45.3013 91.0192L40.3013 99.6795C46.4893 103.252 54.1133 103.252 60.3013 99.6795L55.3013 91.0192ZM88.6025 66.0192C88.6025 69.5919 86.6965 72.8932 83.6025 74.6795L88.6025 83.3397C94.7906 79.7671 98.6025 73.1645 98.6025 66.0192H88.6025ZM83.6025 24.6795C86.6965 26.4658 88.6025 29.7671 88.6025 33.3397H98.6025C98.6025 26.1944 94.7906 19.5919 88.6025 16.0192L83.6025 24.6795ZM60.3013 -0.320509C54.1132 -3.89317 46.4893 -3.89316 40.3013 -0.320507L45.3013 8.33975C48.3953 6.55342 52.2073 6.55342 55.3013 8.33975L60.3013 -0.320509Z" fill="black" fill-opacity="0.25" mask="url(#path-1-inside-1_230_45)"/>
<path fill-rule="evenodd" clip-rule="evenodd" d="M36.5 33.25C34.7051 33.25 33.25 34.7051 33.25 36.5V52.75C33.25 54.5449 34.7051 56 36.5 56H52.75C54.5449 56 56 54.5449 56 52.75V36.5C56 34.7051 54.5449 33.25 52.75 33.25H36.5ZM30 36.5C30 32.9101 32.9101 30 36.5 30H52.75C56.3399 30 59.25 32.9101 59.25 36.5V52.75C59.25 56.3399 56.3399 59.25 52.75 59.25H36.5C32.9101 59.25 30 56.3399 30 52.75V36.5ZM62.5 39.75C66.0897 39.75 69 42.6601 69 46.25V62.5C69 66.0898 66.0898 69 62.5 69H46.25C42.6601 69 39.75 66.0897 39.75 62.5H43C43 64.2949 44.4551 65.75 46.25 65.75H62.5C64.2948 65.75 65.75 64.2948 65.75 62.5V46.25C65.75 44.4551 64.2949 43 62.5 43V39.75Z" fill="white"/>
<defs>
<linearGradient id="paint0_linear_230_45" x1="34" y1="5.5" x2="50.3013" y2="97.359" gradientUnits="userSpaceOnUse">
<stop stop-color="#7000FF"/>
<stop offset="1" stop-color="#FF0000"/>
</linearGradient>
</defs>
</svg>
