<svg width="100" height="100" viewBox="0 0 100 100" fill="none" xmlns="http://www.w3.org/2000/svg">
<mask id="path-1-inside-1_251_2" fill="white">
<path d="M42.8013 4.00962C47.4423 1.33013 53.1603 1.33013 57.8013 4.00962L86.1025 20.3494C90.7436 23.0289 93.6025 27.9808 93.6025 33.3397V66.0192C93.6025 71.3782 90.7436 76.3301 86.1025 79.0096L57.8013 95.3494C53.1603 98.0289 47.4423 98.0289 42.8013 95.3494L14.5 79.0096C9.85899 76.3301 7 71.3782 7 66.0192V33.3397C7 27.9808 9.85898 23.0289 14.5 20.3494L42.8013 4.00962Z"/>
</mask>
<path d="M42.8013 4.00962C47.4423 1.33013 53.1603 1.33013 57.8013 4.00962L86.1025 20.3494C90.7436 23.0289 93.6025 27.9808 93.6025 33.3397V66.0192C93.6025 71.3782 90.7436 76.3301 86.1025 79.0096L57.8013 95.3494C53.1603 98.0289 47.4423 98.0289 42.8013 95.3494L14.5 79.0096C9.85899 76.3301 7 71.3782 7 66.0192V33.3397C7 27.9808 9.85898 23.0289 14.5 20.3494L42.8013 4.00962Z" fill="url(#paint0_linear_251_2)"/>
<path d="M57.8013 95.3494L60.3013 99.6795L57.8013 95.3494ZM42.8013 95.3494L40.3013 99.6795L42.8013 95.3494ZM86.1025 79.0096L83.6025 74.6795L86.1025 79.0096ZM55.3013 8.33975L83.6025 24.6795L88.6025 16.0192L60.3013 -0.320509L55.3013 8.33975ZM88.6025 33.3397V66.0192H98.6025V33.3397H88.6025ZM83.6025 74.6795L55.3013 91.0192L60.3013 99.6795L88.6025 83.3397L83.6025 74.6795ZM45.3013 91.0192L17 74.6795L12 83.3397L40.3013 99.6795L45.3013 91.0192ZM12 66.0192V33.3397H2V66.0192H12ZM17 24.6795L45.3013 8.33975L40.3013 -0.320507L12 16.0192L17 24.6795ZM12 33.3397C12 29.7671 13.906 26.4658 17 24.6795L12 16.0192C5.81198 19.5919 2 26.1944 2 33.3397H12ZM17 74.6795C13.906 72.8932 12 69.5919 12 66.0192H2C2 73.1645 5.81198 79.7671 12 83.3397L17 74.6795ZM55.3013 91.0192C52.2073 92.8056 48.3953 92.8056 45.3013 91.0192L40.3013 99.6795C46.4893 103.252 54.1133 103.252 60.3013 99.6795L55.3013 91.0192ZM88.6025 66.0192C88.6025 69.5919 86.6965 72.8932 83.6025 74.6795L88.6025 83.3397C94.7906 79.7671 98.6025 73.1645 98.6025 66.0192H88.6025ZM83.6025 24.6795C86.6965 26.4658 88.6025 29.7671 88.6025 33.3397H98.6025C98.6025 26.1944 94.7906 19.5919 88.6025 16.0192L83.6025 24.6795ZM60.3013 -0.320509C54.1132 -3.89317 46.4893 -3.89316 40.3013 -0.320507L45.3013 8.33975C48.3953 6.55342 52.2073 6.55342 55.3013 8.33975L60.3013 -0.320509Z" fill="black" fill-opacity="0.25" mask="url(#path-1-inside-1_251_2)"/>
<path fill-rule="evenodd" clip-rule="evenodd" d="M49.5 45C47.0147 45 45 47.0147 45 49.5C45 51.9853 47.0147 54 49.5 54C51.9853 54 54 51.9853 54 49.5C54 47.0147 51.9853 45 49.5 45ZM42 49.5C42 45.3579 45.3579 42 49.5 42C53.6421 42 57 45.3579 57 49.5C57 53.6421 53.6421 57 49.5 57C45.3579 57 42 53.6421 42 49.5Z" fill="white"/>
<path fill-rule="evenodd" clip-rule="evenodd" d="M49.5 33C48.1193 33 47 34.1193 47 35.5C47 36.1067 46.6345 36.6536 46.074 36.8858L43.003 38.1579C42.4425 38.3901 41.7973 38.2617 41.3683 37.8327C40.392 36.8564 38.8091 36.8564 37.8327 37.8327C36.8564 38.8091 36.8564 40.392 37.8327 41.3683C38.2617 41.7973 38.3901 42.4425 38.1579 43.003L36.8858 46.074C36.6536 46.6345 36.1067 47 35.5 47C34.1193 47 33 48.1193 33 49.5C33 50.8807 34.1193 52 35.5 52C36.1067 52 36.6536 52.3654 36.8858 52.926L38.1579 55.997C38.3901 56.5575 38.2617 57.2027 37.8327 57.6317C36.8564 58.608 36.8564 60.1908 37.8327 61.1671C38.8091 62.1435 40.392 62.1435 41.3683 61.1671C41.7973 60.7381 42.4425 60.6098 43.0031 60.842L46.0741 62.1143C46.6346 62.3465 47 62.8934 47 63.5001C47 64.8806 48.1193 66 49.5 66C50.8807 66 52 64.8806 52 63.5001C52 62.8934 52.3654 62.3465 52.9259 62.1143L55.9969 60.842C56.5574 60.6098 57.2026 60.7381 57.6317 61.1671C58.608 62.1435 60.1908 62.1435 61.1671 61.1671C62.1435 60.1908 62.1435 58.608 61.1671 57.6317C60.7381 57.2026 60.6098 56.5574 60.842 55.9969L62.1143 52.9259C62.3465 52.3654 62.8934 52 63.5001 52C64.8806 52 66 50.8807 66 49.5C66 48.1193 64.8806 47 63.5001 47C62.8934 47 62.3465 46.6346 62.1143 46.0741L60.842 43.0031C60.6098 42.4425 60.7381 41.7973 61.1671 41.3683C62.1435 40.392 62.1435 38.8091 61.1671 37.8327C60.1908 36.8564 58.608 36.8564 57.6317 37.8327C57.2027 38.2617 56.5575 38.3901 55.997 38.1579L52.926 36.8858C52.3654 36.6536 52 36.1067 52 35.5C52 34.1193 50.8807 33 49.5 33ZM44.0988 34.4568C44.5862 31.9181 46.8191 30 49.5 30C52.1809 30 54.4138 31.9181 54.9012 34.4568L56.3179 35.0436C58.4577 33.5931 61.3928 33.8157 63.2885 35.7114C65.1841 37.6071 65.4067 40.5422 63.9563 42.682L64.5432 44.0988C67.0818 44.5862 69 46.8191 69 49.5C69 52.1809 67.0818 54.4138 64.5432 54.9012L63.9563 56.3179C65.4067 58.4577 65.1841 61.3928 63.2885 63.2885C61.3928 65.1841 58.4577 65.4067 56.3179 63.9563L54.9012 64.5432C54.4138 67.0818 52.1809 69 49.5 69C46.8191 69 44.5862 67.0818 44.0988 64.5432L42.682 63.9563C40.5422 65.4067 37.6071 65.1841 35.7114 63.2885C33.8157 61.3928 33.5931 58.4577 35.0436 56.3179L34.4568 54.9012C31.9181 54.4138 30 52.1809 30 49.5C30 46.8191 31.9181 44.5862 34.4568 44.0988L35.0436 42.6821C33.5931 40.5423 33.8157 37.6071 35.7114 35.7114C37.6071 33.8157 40.5423 33.5931 42.6821 35.0436L44.0988 34.4568Z" fill="white"/>
<defs>
<linearGradient id="paint0_linear_251_2" x1="34" y1="5.5" x2="50.3013" y2="97.359" gradientUnits="userSpaceOnUse">
<stop stop-color="#75B3CE"/>
<stop offset="1" stop-color="#294D83"/>
</linearGradient>
</defs>
</svg>
