<svg width="100" height="100" viewBox="0 0 100 100" fill="none" xmlns="http://www.w3.org/2000/svg">
<mask id="path-1-inside-1_268_2" fill="white">
<path d="M42.8013 4.00962C47.4423 1.33013 53.1603 1.33013 57.8013 4.00962L86.1025 20.3494C90.7436 23.0289 93.6025 27.9808 93.6025 33.3397V66.0192C93.6025 71.3782 90.7436 76.3301 86.1025 79.0096L57.8013 95.3494C53.1603 98.0289 47.4423 98.0289 42.8013 95.3494L14.5 79.0096C9.85899 76.3301 7 71.3782 7 66.0192V33.3397C7 27.9808 9.85898 23.0289 14.5 20.3494L42.8013 4.00962Z"/>
</mask>
<path d="M42.8013 4.00962C47.4423 1.33013 53.1603 1.33013 57.8013 4.00962L86.1025 20.3494C90.7436 23.0289 93.6025 27.9808 93.6025 33.3397V66.0192C93.6025 71.3782 90.7436 76.3301 86.1025 79.0096L57.8013 95.3494C53.1603 98.0289 47.4423 98.0289 42.8013 95.3494L14.5 79.0096C9.85899 76.3301 7 71.3782 7 66.0192V33.3397C7 27.9808 9.85898 23.0289 14.5 20.3494L42.8013 4.00962Z" fill="url(#paint0_linear_268_2)"/>
<path d="M57.8013 95.3494L60.3013 99.6795L57.8013 95.3494ZM42.8013 95.3494L40.3013 99.6795L42.8013 95.3494ZM86.1025 79.0096L83.6025 74.6795L86.1025 79.0096ZM55.3013 8.33975L83.6025 24.6795L88.6025 16.0192L60.3013 -0.320509L55.3013 8.33975ZM88.6025 33.3397V66.0192H98.6025V33.3397H88.6025ZM83.6025 74.6795L55.3013 91.0192L60.3013 99.6795L88.6025 83.3397L83.6025 74.6795ZM45.3013 91.0192L17 74.6795L12 83.3397L40.3013 99.6795L45.3013 91.0192ZM12 66.0192V33.3397H2V66.0192H12ZM17 24.6795L45.3013 8.33975L40.3013 -0.320507L12 16.0192L17 24.6795ZM12 33.3397C12 29.7671 13.906 26.4658 17 24.6795L12 16.0192C5.81198 19.5919 2 26.1944 2 33.3397H12ZM17 74.6795C13.906 72.8932 12 69.5919 12 66.0192H2C2 73.1645 5.81198 79.7671 12 83.3397L17 74.6795ZM55.3013 91.0192C52.2073 92.8056 48.3953 92.8056 45.3013 91.0192L40.3013 99.6795C46.4893 103.252 54.1133 103.252 60.3013 99.6795L55.3013 91.0192ZM88.6025 66.0192C88.6025 69.5919 86.6965 72.8932 83.6025 74.6795L88.6025 83.3397C94.7906 79.7671 98.6025 73.1645 98.6025 66.0192H88.6025ZM83.6025 24.6795C86.6965 26.4658 88.6025 29.7671 88.6025 33.3397H98.6025C98.6025 26.1944 94.7906 19.5919 88.6025 16.0192L83.6025 24.6795ZM60.3013 -0.320509C54.1132 -3.89317 46.4893 -3.89316 40.3013 -0.320507L45.3013 8.33975C48.3953 6.55342 52.2073 6.55342 55.3013 8.33975L60.3013 -0.320509Z" fill="black" fill-opacity="0.25" mask="url(#path-1-inside-1_268_2)"/>
<path fill-rule="evenodd" clip-rule="evenodd" d="M50.2032 31.8777C50.2032 31.8777 50.2032 31.8777 50.2032 31.8777L45.5522 41.3017C45.1223 42.1726 44.2915 42.7763 43.3303 42.9159C43.3303 42.9159 43.3304 42.9159 43.3303 42.9159L32.9303 44.4272C32.8819 44.4342 32.8594 44.4495 32.8457 44.4615C32.8277 44.4773 32.8085 44.5036 32.7968 44.5397C32.7851 44.5758 32.7852 44.6083 32.7904 44.6317C32.7944 44.6494 32.8036 44.675 32.8386 44.7092L40.3642 52.0448C40.3642 52.0448 40.3642 52.0448 40.3642 52.0448C41.0597 52.7227 41.377 53.6994 41.2129 54.6566L39.4363 65.0147C39.428 65.0629 39.4356 65.089 39.4428 65.1057C39.4523 65.1276 39.4714 65.154 39.5021 65.1764C39.5328 65.1987 39.5638 65.2087 39.5877 65.2109C39.6058 65.2126 39.6331 65.2118 39.6763 65.189L48.9782 60.2986C49.8379 59.8465 50.865 59.8465 51.7247 60.2986L61.0267 65.189C61.07 65.2118 61.0972 65.2126 61.1153 65.2109C61.1391 65.2087 61.1701 65.1987 61.2008 65.1764C61.2315 65.1541 61.2505 65.1277 61.26 65.1058C61.2672 65.0891 61.2748 65.0631 61.2665 65.0149L59.49 54.6567C59.3259 53.6994 59.6434 52.7227 60.3385 52.0449L67.8642 44.7092C67.8992 44.675 67.9085 44.6493 67.9125 44.6316C67.9177 44.6083 67.9178 44.5758 67.9061 44.5397C67.8944 44.5037 67.8752 44.4774 67.8572 44.4615C67.8435 44.4495 67.821 44.4342 67.7726 44.4272L57.3727 42.916C57.3727 42.916 57.3727 42.916 57.3727 42.916C56.4116 42.7763 55.5804 42.1727 55.1506 41.3014L50.4997 31.8777C50.4997 31.8777 50.4997 31.8777 50.4997 31.8777C50.4781 31.8338 50.4566 31.8171 50.4409 31.8078C50.4203 31.7956 50.3894 31.7855 50.3515 31.7855C50.3135 31.7855 50.2826 31.7956 50.262 31.8078C50.2464 31.8171 50.2248 31.8338 50.2032 31.8777ZM47.7053 30.6449C48.7878 28.4517 51.9152 28.4517 52.9976 30.6449L57.6486 40.069C57.6725 40.1174 57.719 40.1515 57.7731 40.1594L68.1731 41.6706C70.5932 42.0223 71.5602 44.9966 69.8084 46.7039L62.2831 54.0393C62.283 54.0394 62.2831 54.0393 62.2831 54.0393C62.2441 54.0774 62.2262 54.1323 62.2354 54.1858M62.2354 54.1858L64.0119 64.5437C64.0119 64.5437 64.0119 64.5436 64.0119 64.5437C64.4255 66.9542 61.8953 68.7924 59.7307 67.6547L50.4284 62.7641C50.3803 62.7388 50.3227 62.7387 50.2747 62.764L40.9724 67.6546C38.8078 68.7924 36.2774 66.9543 36.6909 64.5439L38.4674 54.1859C38.4674 54.1858 38.4674 54.1859 38.4674 54.1859C38.4766 54.1321 38.4588 54.0774 38.4199 54.0395L30.8944 46.7038C29.1429 44.9967 30.1095 42.0223 32.5298 41.6706L42.9298 40.1594C42.9836 40.1516 43.0302 40.1178 43.0543 40.069L47.7053 30.6449" fill="white"/>
<defs>
<linearGradient id="paint0_linear_268_2" x1="34" y1="5.5" x2="50.3013" y2="97.359" gradientUnits="userSpaceOnUse">
<stop stop-color="#FFB119"/>
<stop offset="1" stop-color="#7F7A00"/>
</linearGradient>
</defs>
</svg>
